 http://img402.imageshack.us/img402/1107/something2bborrowed2bpo.jpg

Country.......: USA
Genre.........: Comedy, Romance, Drama
Date release..: 05.05.2011 [World]
Director......: Luke Greenfield
Writers.......: Jennie Snyder, Emily Giffin
Duration......: 108 min.
More..........: http://www.imdb.com/title/tt0491152
Trailer.......: http://www.imdb.com/video/imdb/vi45194521
Trailer.......:

Pilot :
Friendships are tested and secrets come to the surface when terminally single Rachel falls for Dex, her best friend Darcy's fiancé. 

Cats :
Ginnifer Goodwin   	 ...  	Rachel
Kate Hudson 	... 	Darcy
Colin Egglesfield 	... 	Dex
John Krasinski 	... 	Ethan
Steve Howey 	... 	Marcus
Ashley Williams 	... 	Claire
Geoff Pierson 	... 	Dexter Thaler Sr.
Jill Eikenberry 	... 	Bridget Thaler
Jonathan Epstein 	... 	Professor Zigman
Leia Thompson 	... 	Bridal Consultant
Sarah Baldwin 	... 	June
Mark La Mura 	... 	Marcuss Dad
Lindsay Ryan 	... 	Salesgirl
Kirsten Day 	... 	Pretty Brunette
Christopher Peuler 	... 	Husband 

Data Technical :
!!! SAMPLE !!!
Audio.....: English
Subtitles.: None
Format                           : AVI
Format/Info                      : Audio Video Interleave
File size                        : 1.37 GiB
Duration                         : 1h 47mn
Overall bit rate                 : 1 823 Kbps
Writing library                  : VirtualDub build 32706/release
Video
ID                               : 0
Format                           : MPEG-4 Visual
Format profile                   : Advanced Simple@L5
Format settings, BVOP            : Yes
Format settings, QPel            : No
Format settings, GMC             : No warppoints
Format settings, Matrix          : Default (MPEG)
Muxing mode                      : Packed bitstream
Codec ID                         : XVID
Codec ID/Hint                    : XviD
Duration                         : 1h 47mn
Bit rate                         : 1 685 Kbps
Width                            : 720 pixels
Height                           : 384 pixels
Display aspect ratio             : 1.875
Frame rate                       : 25.000 fps
Color space                      : YUV
Chroma subsampling               : 4:2:0
Bit depth                        : 8 bits
Scan type                        : Progressive
Bits/(Pixel*Frame)               : 0.244
Stream size                      : 1.27 GiB (92%)
Writing library                  : XviD 61
Audio
ID                               : 1
Format                           : MPEG Audio
Format version                   : Version 1
Format profile                   : Layer 3
Codec ID                         : 55
Codec ID/Hint                    : MP3
Duration                         : 1h 47mn
Bit rate mode                    : Constant
Bit rate                         : 128 Kbps
Channel(s)                       : 2 channels
Sampling rate                    : 44.1 KHz
Stream size                      : 98.7 MiB (7%)
Alignment                        : Split accross interleaves
Interleave, duration             : 40 ms (1.00 video frame)
Interleave, preload duration     : 500 ms

Screen : 
http://img96.imageshack.us/img96/9175/somethiingborrowed2011s.jpg 
http://img232.imageshack.us/img232/9175/somethiingborrowed2011s.jpg 
http://img706.imageshack.us/img706/9175/somethiingborrowed2011s.jpg 
http://img685.imageshack.us/img685/9175/somethiingborrowed2011s.jpg 
http://img339.imageshack.us/img339/9175/somethiingborrowed2011s.jpg